<svg xmlns="http://www.w3.org/2000/svg" version="1.1" xmlns:xlink="http://www.w3.org/1999/xlink" xmlns:svgjs="http://svgjs.com/svgjs" width="375" height="667" preserveAspectRatio="none" viewBox="0 0 375 667"><g mask="url(&quot;#SvgjsMask1076&quot;)" fill="none"><rect width="375" height="667" x="0" y="0" fill="rgba(49, 49, 49, 1)"></rect><path d="M0,174.49C40.211,176.212,84.032,205.201,117.953,183.538C151.86,161.883,149.74,111.83,159.303,72.751C167.187,40.535,165.364,8.717,168.808,-24.271C173.597,-70.134,208.823,-120.468,183.502,-159.006C158.975,-196.335,101.708,-192.94,57.064,-194.341C19.813,-195.51,-12.04,-172.26,-48.828,-166.294C-92.993,-159.132,-145.529,-184.52,-179.926,-155.907C-213.79,-127.738,-210.712,-74.521,-212.084,-30.493C-213.342,9.866,-205.275,49.373,-187.452,85.606C-169.997,121.09,-147.368,156.766,-111.636,173.709C-77.317,189.982,-37.947,172.865,0,174.49" fill="#2f2f2f"></path><path d="M375 999.496C438.15 992.355 452.382 903.03 498.774 859.595 534.067 826.5509999999999 592.549 819.487 613.7 776.011 634.941 732.35 620.467 680.518 608.8240000000001 633.381 598.081 589.886 577.783 550.544 549.44 515.847 520.42 480.322 485.776 450.847 444.086 431.714 397.405 410.291 344.92 382.543 296.53700000000003 399.78 248.239 416.98699999999997 235.194 478.041 202.708 517.708 171.387 555.952 119.495 580.448 109.01100000000002 628.757 98.38999999999999 677.701 126.47 725.445 147.792 770.762 168.896 815.614 196.894 854.614 231.827 889.782 275.076 933.321 314.02 1006.392 375 999.496" fill="#343434"></path></g><defs><mask id="SvgjsMask1076"><rect width="375" height="667" fill="#ffffff"></rect></mask></defs></svg>